# xmcd
#
# Track frame offsets:
#	157
#	30312
#	56955
#	83282
#	125190
#	147757
#	178237
#	194840
#	219657
#	242857
#	261602
#	286435
#
# Disc length: 4077 seconds
#
# Revision: 0
# Processed by: cddbd v1.5.2PL0 Copyright (c) Steve Scherf et al.
# Submitted via: dBpowerAMP V4.0
#
DISCID=c30feb0c
DTITLE=Blue Monday - Murdered By Love
DYEAR=1986
DGENRE=Blues
TTITLE0=Murdered By Love
TTITLE1=She's So Fine
TTITLE2=The Thrill Is Gone
TTITLE3=Old Fashioned Funny Feeling
TTITLE4=What Do You Want
TTITLE5=Bad Is Bad
TTITLE6=Chocolate Cookie
TTITLE7=I Take It Out On You
TTITLE8=She's Gone
TTITLE9=I'm The Blues
TTITLE10=Gas, Food and Lodging
TTITLE11=Nothin' Left But The Blues
EXTD=
EXTT0=
EXTT1=
EXTT2=
EXTT3=
EXTT4=
EXTT5=
EXTT6=
EXTT7=
EXTT8=
EXTT9=
EXTT10=
EXTT11=
PLAYORDER=
